<?xml version="1.0" encoding="utf-8"?>
<!-- Generator: Adobe Illustrator 16.0.3, SVG Export Plug-In . SVG Version: 6.00 Build 0)  -->
<!DOCTYPE svg PUBLIC "-//W3C//DTD SVG 1.1//EN" "http://www.w3.org/Graphics/SVG/1.1/DTD/svg11.dtd">
<svg version="1.1" id="Capa_1" xmlns="http://www.w3.org/2000/svg" xmlns:xlink="http://www.w3.org/1999/xlink" x="0px" y="0px"
	 width="97.888px" height="25.5px" viewBox="0 0 97.888 25.5" enable-background="new 0 0 97.888 25.5" xml:space="preserve">
<g>
	<g>
		<path fill="#091858" d="M9.092,83.964v7.279c0,1.038,0.234,1.813,1.229,1.813c0.993,0,1.228-0.775,1.228-1.813v-7.279h2.104v7.279
			c0,2.646-1.622,3.362-3.332,3.362c-1.711,0-3.333-0.57-3.333-3.362v-7.279H9.092z"/>
		<path fill="#091858" d="M16.4,91.828v0.264c0,0.687,0.366,1.14,1.053,1.14c0.629,0,1.023-0.308,1.023-0.936
			c0-0.512-0.336-0.731-0.73-0.892l-1.418-0.512c-1.111-0.395-1.682-1.082-1.682-2.193c0-1.285,0.833-2.367,2.895-2.367
			c1.827,0,2.689,0.818,2.689,2.236v0.322h-1.813c0-0.805-0.233-1.185-0.892-1.185c-0.512,0-0.95,0.277-0.95,0.848
			c0,0.395,0.19,0.702,0.877,0.921l1.214,0.409c1.271,0.424,1.739,1.067,1.739,2.251c0,1.652-1.229,2.471-2.924,2.471
			c-2.28,0-2.895-0.979-2.895-2.5v-0.277H16.4z"/>
		<path fill="#091858" d="M25.449,93.48H25.42c-0.424,0.774-1.141,1.125-2.003,1.125c-1.271,0-2.002-0.672-2.002-2.236v-5.832h2.017
			v5.422c0,0.805,0.264,1.098,0.862,1.098c0.717,0,1.067-0.439,1.067-1.302v-5.218h2.018V94.4h-1.93V93.48z"/>
		<path fill="#091858" d="M28.71,88.948v-0.19c0-1.813,1.242-2.426,2.763-2.426c2.397,0,2.851,0.994,2.851,2.412v4.137
			c0,0.745,0.058,1.053,0.248,1.52h-1.93c-0.132-0.248-0.189-0.541-0.248-0.818h-0.029c-0.468,0.818-1.023,1.023-2.003,1.023
			c-1.403,0-1.9-1.199-1.9-2.251c0-1.491,0.6-2.075,1.988-2.456l1.14-0.307c0.6-0.161,0.805-0.395,0.805-0.921
			c0-0.6-0.249-0.965-0.936-0.965c-0.629,0-0.936,0.395-0.936,1.022v0.22H28.71z M32.394,90.469
			c-0.278,0.219-0.614,0.336-0.862,0.395c-0.819,0.176-1.141,0.57-1.141,1.271c0,0.6,0.22,1.097,0.76,1.097
			c0.541,0,1.243-0.337,1.243-1.214V90.469z"/>
		<path fill="#091858" d="M35.756,86.537h1.929v1.052h0.029c0.41-0.761,0.979-1.257,1.813-1.257c0.117,0,0.249,0.014,0.366,0.029
			v1.93c-0.22-0.016-0.409-0.029-0.629-0.029c-0.701,0-1.491,0.365-1.491,1.418V94.4h-2.017V86.537z"/>
		<path fill="#091858" d="M40.695,83.847h2.018v1.726h-2.018V83.847z M40.695,86.537h2.018V94.4h-2.018V86.537z"/>
		<path fill="#091858" d="M46.968,86.332c2.411-0.044,3.099,1.389,3.099,4.137c0,2.689-0.804,4.137-3.099,4.137
			c-2.412,0.044-3.1-1.389-3.1-4.137C43.868,87.779,44.672,86.332,46.968,86.332z M46.968,93.231c0.818,0,1.081-0.79,1.081-2.763
			c0-1.974-0.263-2.763-1.081-2.763c-0.994,0-1.082,1.155-1.082,2.763S45.974,93.231,46.968,93.231z"/>
	</g>
	<path fill="#091858" d="M82.597,86.271c-1.253-1.254-2.743-2.182-4.369-2.742c1.741-1.199,2.886-3.207,2.886-5.479
		c0-3.666-2.982-6.648-6.648-6.648s-6.647,2.982-6.647,6.648c0,2.271,1.144,4.279,2.886,5.479c-1.626,0.561-3.117,1.488-4.37,2.742
		c-2.172,2.172-3.368,5.059-3.368,8.131h1.797c0-5.35,4.354-9.703,9.703-9.703c5.351,0,9.703,4.354,9.703,9.703h1.797
		C85.965,91.329,84.77,88.442,82.597,86.271 M74.465,82.901c-2.675,0-4.852-2.176-4.852-4.852s2.177-4.852,4.852-4.852
		s4.853,2.176,4.853,4.852S77.14,82.901,74.465,82.901"/>
</g>
<g>
	<g>
		<path fill="#091858" d="M4.919,16.617c0-1.52-0.307-2.178-1.257-2.178c-1.053,0-1.316,1.053-1.316,4.02
			c0,3.158,0.438,3.729,1.346,3.729c0.745,0,1.315-0.381,1.315-2.646h2.104c0,2.266-0.556,4.195-3.318,4.195
			c-3.157,0-3.552-2.251-3.552-5.424c0-3.172,0.395-5.423,3.552-5.423c3.012,0,3.23,2.208,3.23,3.728H4.919z"/>
		<path fill="#091858" d="M11.088,15.463c2.411-0.044,3.099,1.389,3.099,4.137c0,2.689-0.804,4.137-3.099,4.137
			c-2.412,0.044-3.1-1.389-3.1-4.137C7.988,16.91,8.792,15.463,11.088,15.463z M11.088,22.362c0.818,0,1.081-0.79,1.081-2.763
			c0-1.974-0.263-2.763-1.081-2.763c-0.994,0-1.082,1.155-1.082,2.763S10.094,22.362,11.088,22.362z"/>
		<path fill="#091858" d="M15.269,15.668h1.929v0.92h0.029c0.424-0.774,1.141-1.125,2.003-1.125c1.271,0,2.003,0.672,2.003,2.236
			v5.832h-2.018v-5.423c0-0.804-0.263-1.097-0.862-1.097c-0.716,0-1.067,0.439-1.067,1.301v5.219h-2.017V15.668z"/>
		<path fill="#091858" d="M23.017,13.416h2.017v2.252h1.17v1.373h-1.17v4.254c0,0.629,0.132,0.863,0.717,0.863
			c0.16,0,0.321-0.016,0.453-0.029v1.402c-0.453,0.045-0.848,0.088-1.315,0.088c-1.579,0-1.871-0.496-1.871-2.075v-4.503h-1.023
			v-1.373h1.023V13.416z"/>
		<path fill="#091858" d="M26.904,15.668h1.929v1.052h0.029c0.409-0.761,0.979-1.257,1.813-1.257c0.116,0,0.248,0.014,0.365,0.029
			v1.93c-0.22-0.016-0.409-0.029-0.629-0.029c-0.701,0-1.491,0.365-1.491,1.418v4.721h-2.017V15.668z"/>
		<path fill="#091858" d="M31.758,18.079v-0.19c0-1.813,1.242-2.426,2.763-2.426c2.397,0,2.851,0.994,2.851,2.412v4.137
			c0,0.745,0.058,1.053,0.248,1.52h-1.93c-0.132-0.248-0.189-0.541-0.248-0.818h-0.029c-0.468,0.818-1.023,1.023-2.003,1.023
			c-1.403,0-1.9-1.199-1.9-2.251c0-1.491,0.6-2.075,1.988-2.456l1.14-0.307c0.6-0.161,0.805-0.395,0.805-0.921
			c0-0.6-0.249-0.965-0.936-0.965c-0.629,0-0.936,0.395-0.936,1.022v0.22H31.758z M35.441,19.6
			c-0.278,0.219-0.614,0.336-0.862,0.395c-0.819,0.176-1.141,0.57-1.141,1.271c0,0.6,0.22,1.097,0.76,1.097
			c0.541,0,1.243-0.337,1.243-1.214V19.6z"/>
		<path fill="#091858" d="M40.279,20.959v0.264c0,0.687,0.366,1.14,1.053,1.14c0.629,0,1.023-0.308,1.023-0.936
			c0-0.512-0.336-0.731-0.73-0.892l-1.418-0.512c-1.111-0.395-1.682-1.082-1.682-2.193c0-1.285,0.833-2.367,2.895-2.367
			c1.827,0,2.689,0.818,2.689,2.236v0.322h-1.813c0-0.805-0.233-1.185-0.892-1.185c-0.512,0-0.95,0.277-0.95,0.848
			c0,0.395,0.19,0.702,0.877,0.921l1.214,0.409c1.271,0.424,1.739,1.067,1.739,2.251c0,1.652-1.229,2.471-2.924,2.471
			c-2.28,0-2.895-0.979-2.895-2.5v-0.277H40.279z"/>
		<path fill="#091858" d="M47.019,19.906v0.629c0,0.936,0.248,1.827,0.994,1.827c0.687,0,0.95-0.482,1.066-1.477h1.813
			c-0.073,1.827-0.921,2.851-2.851,2.851c-2.924,0-3.041-2.251-3.041-4.21c0-2.104,0.409-4.063,3.128-4.063
			c2.354,0,2.88,1.578,2.88,3.99v0.453H47.019z M49.079,18.708c-0.043-1.198-0.189-1.871-1.022-1.871
			c-0.805,0-1.038,0.818-1.038,1.563v0.308H49.079z"/>
		<path fill="#091858" d="M52.063,15.668h1.929v0.92h0.029c0.424-0.774,1.141-1.125,2.003-1.125c1.271,0,2.003,0.672,2.003,2.236
			v5.832h-2.018v-5.423c0-0.804-0.263-1.097-0.862-1.097c-0.717,0-1.067,0.439-1.067,1.301v5.219h-2.017V15.668z M52.646,14.6
			c0.161-1.154,0.614-1.813,1.359-1.813c0.249,0,0.468,0.029,0.629,0.103l0.702,0.308c0.146,0.059,0.292,0.088,0.438,0.088
			c0.277,0,0.409-0.337,0.409-0.527h1.052c-0.102,1.053-0.613,1.813-1.359,1.813c-0.613,0-1.271-0.496-1.739-0.496
			c-0.248,0-0.395,0.176-0.468,0.525H52.646z"/>
		<path fill="#091858" d="M59.356,18.079v-0.19c0-1.813,1.242-2.426,2.763-2.426c2.397,0,2.851,0.994,2.851,2.412v4.137
			c0,0.745,0.058,1.053,0.248,1.52h-1.93c-0.132-0.248-0.189-0.541-0.248-0.818h-0.029c-0.468,0.818-1.023,1.023-2.003,1.023
			c-1.403,0-1.9-1.199-1.9-2.251c0-1.491,0.6-2.075,1.988-2.456l1.14-0.307c0.6-0.161,0.805-0.395,0.805-0.921
			c0-0.6-0.249-0.965-0.936-0.965c-0.629,0-0.936,0.395-0.936,1.022v0.22H59.356z M63.04,19.6c-0.278,0.219-0.614,0.336-0.862,0.395
			c-0.819,0.176-1.141,0.57-1.141,1.271c0,0.6,0.22,1.097,0.76,1.097c0.541,0,1.243-0.337,1.243-1.214V19.6z"/>
	</g>
	<path fill="#091858" d="M75.402,16.242c-1.168,1.17-1.168,3.074,0.001,4.242l3.17,3.172c0.565,0.564,1.319,0.877,2.122,0.877
		c0.804,0,1.559-0.313,2.122-0.877l1.172-1.172c1.168-1.168,1.168-3.072,0-4.242l-0.878-0.877l5.078-5.066l2.8,2.799l1.414-1.414
		l-2.799-2.799l1.588-1.584l1.797,1.797l1.414-1.412l-1.795-1.797l1.087-1.084l2.294,2.293l1.414-1.414l-3.706-3.707l-12,11.973
		l-0.88-0.879c-1.13-1.129-3.114-1.129-4.243,0L75.402,16.242z M77.989,16.484c0.188-0.188,0.438-0.291,0.706-0.291
		c0.27,0,0.521,0.104,0.708,0.291l3.17,3.172c0.392,0.391,0.392,1.023,0.001,1.414l-1.172,1.172c-0.374,0.375-1.038,0.377-1.413,0
		l-3.172-3.172c-0.39-0.391-0.39-1.025,0-1.414L77.989,16.484z"/>
</g>
<g>
	<g>
		<path fill="#091858" d="M12.126,55.934c0-1.521-0.307-2.179-1.257-2.179c-1.053,0-1.316,1.053-1.316,4.021
			c0,3.157,0.438,3.728,1.346,3.728c0.745,0,1.315-0.381,1.315-2.646h2.104c0,2.266-0.556,4.195-3.318,4.195
			c-3.157,0-3.552-2.251-3.552-5.423S7.843,52.206,11,52.206c3.012,0,3.23,2.207,3.23,3.728H12.126z"/>
		<path fill="#091858" d="M19.493,61.927h-0.029c-0.424,0.774-1.141,1.125-2.003,1.125c-1.271,0-2.002-0.672-2.002-2.236v-5.832
			h2.017v5.423c0,0.804,0.264,1.097,0.862,1.097c0.717,0,1.067-0.438,1.067-1.302v-5.218h2.018v7.864h-1.93V61.927z"/>
		<path fill="#091858" d="M24.493,59.223v0.628c0,0.936,0.248,1.827,0.994,1.827c0.687,0,0.95-0.482,1.066-1.477h1.813
			c-0.073,1.828-0.921,2.851-2.851,2.851c-2.924,0-3.041-2.251-3.041-4.21c0-2.104,0.409-4.063,3.129-4.063
			c2.353,0,2.879,1.579,2.879,3.99v0.454H24.493z M26.554,58.023c-0.043-1.198-0.189-1.871-1.022-1.871
			c-0.805,0-1.038,0.818-1.038,1.564v0.307H26.554z"/>
		<path fill="#091858" d="M29.536,54.983h1.929v0.921h0.029c0.424-0.775,1.141-1.126,2.003-1.126c1.271,0,2.003,0.673,2.003,2.236
			v5.833h-2.018v-5.424c0-0.804-0.263-1.096-0.862-1.096c-0.717,0-1.067,0.438-1.067,1.301v5.219h-2.017V54.983z"/>
		<path fill="#091858" d="M37.284,52.731h2.017v2.252h1.17v1.374h-1.17v4.254c0,0.628,0.132,0.862,0.717,0.862
			c0.16,0,0.321-0.015,0.453-0.029v1.403c-0.453,0.044-0.848,0.088-1.315,0.088c-1.579,0-1.871-0.497-1.871-2.076v-4.502h-1.023
			v-1.374h1.023V52.731z"/>
		<path fill="#091858" d="M41.157,57.395v-0.189c0-1.813,1.242-2.427,2.763-2.427c2.397,0,2.851,0.994,2.851,2.412v4.137
			c0,0.745,0.058,1.053,0.248,1.521h-1.93c-0.132-0.249-0.189-0.541-0.248-0.818h-0.029c-0.468,0.818-1.023,1.022-2.003,1.022
			c-1.403,0-1.9-1.198-1.9-2.251c0-1.491,0.6-2.075,1.988-2.456l1.14-0.307c0.6-0.161,0.805-0.395,0.805-0.921
			c0-0.6-0.249-0.965-0.936-0.965c-0.629,0-0.936,0.395-0.936,1.023v0.219H41.157z M44.841,58.915
			c-0.278,0.22-0.614,0.336-0.862,0.395c-0.819,0.176-1.141,0.57-1.141,1.272c0,0.599,0.22,1.096,0.76,1.096
			c0.541,0,1.243-0.336,1.243-1.213V58.915z"/>
	</g>
	<path fill="#091858" d="M65.401,58.252c0,1.234-1.002,2.234-2.235,2.234c-1.235,0-2.236-1-2.236-2.234
		c0-1.236,1.001-2.236,2.236-2.236C64.399,56.016,65.401,57.016,65.401,58.252"/>
	<path fill="#091858" d="M63.166,60.986c-1.508,0-2.735-1.227-2.735-2.736c0-1.506,1.228-2.734,2.735-2.734S65.9,56.744,65.9,58.25
		C65.9,59.76,64.674,60.986,63.166,60.986 M63.166,56.516c-0.957,0-1.735,0.777-1.735,1.734s0.778,1.736,1.735,1.736
		S64.9,59.207,64.9,58.25S64.123,56.516,63.166,56.516"/>
	<path fill="#091858" d="M74.206,58.252c0,1.234-1.001,2.234-2.234,2.234c-1.235,0-2.236-1-2.236-2.234
		c0-1.236,1.001-2.236,2.236-2.236C73.205,56.016,74.206,57.016,74.206,58.252"/>
	<path fill="#091858" d="M71.972,60.986c-1.509,0-2.736-1.227-2.736-2.736c0-1.506,1.228-2.734,2.736-2.734
		c1.508,0,2.734,1.229,2.734,2.734C74.706,59.76,73.479,60.986,71.972,60.986 M71.972,56.516c-0.957,0-1.736,0.777-1.736,1.734
		s0.779,1.736,1.736,1.736s1.734-0.779,1.734-1.736S72.929,56.516,71.972,56.516"/>
	<path fill="#091858" d="M83.012,58.252c0,1.234-1.001,2.234-2.235,2.234s-2.235-1-2.235-2.234c0-1.236,1.001-2.236,2.235-2.236
		S83.012,57.016,83.012,58.252"/>
	<path fill="#091858" d="M80.776,60.986c-1.508,0-2.735-1.227-2.735-2.736c0-1.506,1.228-2.734,2.735-2.734s2.734,1.229,2.734,2.734
		C83.511,59.76,82.284,60.986,80.776,60.986 M80.776,56.516c-0.957,0-1.735,0.777-1.735,1.734s0.778,1.736,1.735,1.736
		s1.734-0.779,1.734-1.736S81.733,56.516,80.776,56.516"/>
	<path fill="#091858" d="M83.183,63.318h-22.32c-2.117,0-3.841-1.721-3.841-3.838v-2.643c0-2.117,1.724-3.84,3.841-3.84h22.32
		c2.117,0,3.839,1.723,3.839,3.84v2.643C87.021,61.598,85.3,63.318,83.183,63.318 M60.862,53.305c-1.948,0-3.532,1.586-3.532,3.533
		v2.643c0,1.947,1.584,3.531,3.532,3.531h22.32c1.948,0,3.532-1.584,3.532-3.531v-2.643c0-1.947-1.584-3.533-3.532-3.533H60.862z"/>
	<path fill="#091858" d="M83.182,63.82H60.862c-2.394,0-4.34-1.949-4.34-4.34v-2.643c0-2.393,1.946-4.34,4.34-4.34h22.319
		c2.394,0,4.341,1.947,4.341,4.34v2.643C87.522,61.871,85.575,63.82,83.182,63.82 M60.862,53.805c-1.672,0-3.032,1.359-3.032,3.033
		v2.643c0,1.672,1.36,3.033,3.032,3.033h22.319c1.673,0,3.033-1.361,3.033-3.033v-2.643c0-1.674-1.36-3.033-3.033-3.033H60.862z"/>
</g>
<g>
</g>
<g>
</g>
<g>
</g>
<g>
</g>
<g>
</g>
<g>
</g>
<g>
</g>
<g>
</g>
<g>
</g>
<g>
</g>
<g>
</g>
<g>
</g>
<g>
</g>
<g>
</g>
<g>
</g>
</svg>
